<svg width="47" height="54" viewBox="0 0 47 54" fill="none" xmlns="http://www.w3.org/2000/svg">
<g filter="url(#filter0_dd_104_364)">
<path d="M5.32812 19C5.32812 9.05888 13.387 1 23.3281 1C33.2693 1 41.3281 9.05888 41.3281 19V27C41.3281 36.9411 33.2693 45 23.3281 45C13.387 45 5.32812 36.9411 5.32812 27V19Z" fill="white"/>
<g clip-path="url(#clip0_104_364)">
<path d="M13.4844 14.9141C13.3802 14.7578 13.3281 14.5885 13.3281 14.4062C13.3802 13.8073 13.7057 13.4818 14.3047 13.4297H18.5625C19.0312 13.4557 19.3828 13.6641 19.6172 14.0547L22.3125 18.5078C20.3854 18.7682 18.7708 19.5755 17.4688 20.9297L13.4844 14.9141ZM33.1719 14.9141L29.1875 20.9297C27.8854 19.5755 26.2708 18.7682 24.3438 18.5078L27.0391 14.0547C27.2734 13.6641 27.625 13.4557 28.0938 13.4297H32.3516C32.9505 13.4818 33.276 13.8073 33.3281 14.4062C33.3281 14.5885 33.276 14.7578 33.1719 14.9141ZM16.4531 26.5547C16.4531 25.3047 16.7656 24.1589 17.3906 23.1172C17.9896 22.0755 18.8229 21.2422 19.8906 20.6172C20.9844 19.9922 22.1302 19.6797 23.3281 19.6797C24.526 19.6797 25.6719 19.9922 26.7656 20.6172C27.8333 21.2422 28.6667 22.0755 29.2656 23.1172C29.8906 24.1589 30.2031 25.3047 30.2031 26.5547C30.2031 27.8047 29.8906 28.9505 29.2656 29.9922C28.6667 31.0339 27.8333 31.8672 26.7656 32.4922C25.6719 33.1172 24.526 33.4297 23.3281 33.4297C22.1302 33.4297 20.9844 33.1172 19.8906 32.4922C18.8229 31.8672 17.9896 31.0339 17.3906 29.9922C16.7656 28.9505 16.4531 27.8047 16.4531 26.5547ZM23.6406 22.8438C23.4323 22.5833 23.224 22.5833 23.0156 22.8438L22.1172 24.6406C22.0651 24.7448 21.974 24.8099 21.8438 24.8359L19.8906 25.1094C19.5781 25.2396 19.513 25.4479 19.6953 25.7344L21.1016 27.1016C21.1797 27.2057 21.2188 27.3229 21.2188 27.4531L20.8672 29.3672C20.8672 29.5234 20.9193 29.6536 21.0234 29.7578C21.1276 29.8359 21.2578 29.8359 21.4141 29.7578L23.1719 28.8594C23.276 28.8073 23.3802 28.8073 23.4844 28.8594L25.2422 29.7578C25.5807 29.862 25.763 29.7318 25.7891 29.3672L25.4375 27.4531C25.4115 27.3229 25.4505 27.2057 25.5547 27.1016L26.9609 25.7344C27.1432 25.4479 27.0781 25.2396 26.7656 25.1094L24.8125 24.8359C24.6823 24.8099 24.5911 24.7448 24.5391 24.6406L23.6406 22.8438Z" fill="#C2410C"/>
</g>
</g>
<defs>
<filter id="filter0_dd_104_364" x="0.328125" y="0" width="46" height="54" filterUnits="userSpaceOnUse" color-interpolation-filters="sRGB">
<feFlood flood-opacity="0" result="BackgroundImageFix"/>
<feColorMatrix in="SourceAlpha" type="matrix" values="0 0 0 0 0 0 0 0 0 0 0 0 0 0 0 0 0 0 127 0" result="hardAlpha"/>
<feMorphology radius="1" operator="erode" in="SourceAlpha" result="effect1_dropShadow_104_364"/>
<feOffset dy="4"/>
<feGaussianBlur stdDeviation="3"/>
<feColorMatrix type="matrix" values="0 0 0 0 0 0 0 0 0 0 0 0 0 0 0 0 0 0 0.1 0"/>
<feBlend mode="normal" in2="BackgroundImageFix" result="effect1_dropShadow_104_364"/>
<feColorMatrix in="SourceAlpha" type="matrix" values="0 0 0 0 0 0 0 0 0 0 0 0 0 0 0 0 0 0 127 0" result="hardAlpha"/>
<feMorphology radius="2" operator="erode" in="SourceAlpha" result="effect2_dropShadow_104_364"/>
<feOffset dy="2"/>
<feGaussianBlur stdDeviation="2"/>
<feColorMatrix type="matrix" values="0 0 0 0 0 0 0 0 0 0 0 0 0 0 0 0 0 0 0.1 0"/>
<feBlend mode="normal" in2="effect1_dropShadow_104_364" result="effect2_dropShadow_104_364"/>
<feBlend mode="normal" in="SourceGraphic" in2="effect2_dropShadow_104_364" result="shape"/>
</filter>
<clipPath id="clip0_104_364">
<rect width="20" height="20" fill="white" transform="translate(13.3281 13)"/>
</clipPath>
</defs>
</svg>
