<svg width="16" height="13" viewBox="0 0 16 13" fill="none" xmlns="http://www.w3.org/2000/svg">
<path d="M1.5 0.34375C1.08333 0.364583 0.729167 0.510417 0.4375 0.78125C0.166667 1.07292 0.0208333 1.42708 0 1.84375C0.0208333 2.34375 0.21875 2.73958 0.59375 3.03125L7.40625 8.15625C7.80208 8.40625 8.19792 8.40625 8.59375 8.15625L15.4062 3.03125C15.7812 2.73958 15.9792 2.34375 16 1.84375C15.9792 1.42708 15.8333 1.07292 15.5625 0.78125C15.2708 0.510417 14.9167 0.364583 14.5 0.34375H1.5ZM0 3.84375V10.3438C0.0208333 10.9062 0.21875 11.375 0.59375 11.75C0.96875 12.125 1.4375 12.3229 2 12.3438H14C14.5625 12.3229 15.0312 12.125 15.4062 11.75C15.7812 11.375 15.9792 10.9062 16 10.3438V3.84375L9.1875 8.9375C8.83333 9.20833 8.4375 9.34375 8 9.34375C7.5625 9.34375 7.16667 9.20833 6.8125 8.9375L0 3.84375Z" fill="#9CA3AF"/>
</svg>
