<svg width="47" height="54" viewBox="0 0 47 54" fill="none" xmlns="http://www.w3.org/2000/svg">
<g filter="url(#filter0_dd_104_296)">
<path d="M5.66406 19C5.66406 9.05888 13.7229 1 23.6641 1C33.6052 1 41.6641 9.05888 41.6641 19V27C41.6641 36.9411 33.6052 45 23.6641 45C13.7229 45 5.66406 36.9411 5.66406 27V19Z" fill="white"/>
<g clip-path="url(#clip0_104_296)">
<path d="M13.8203 14.9141C13.7161 14.7578 13.6641 14.5885 13.6641 14.4062C13.7161 13.8073 14.0417 13.4818 14.6406 13.4297H18.8984C19.3672 13.4557 19.7188 13.6641 19.9531 14.0547L22.6484 18.5078C20.7214 18.7682 19.1068 19.5755 17.8047 20.9297L13.8203 14.9141ZM33.5078 14.9141L29.5234 20.9297C28.2214 19.5755 26.6068 18.7682 24.6797 18.5078L27.375 14.0547C27.6094 13.6641 27.9609 13.4557 28.4297 13.4297H32.6875C33.2865 13.4818 33.612 13.8073 33.6641 14.4062C33.6641 14.5885 33.612 14.7578 33.5078 14.9141ZM16.7891 26.5547C16.7891 25.3047 17.1016 24.1589 17.7266 23.1172C18.3255 22.0755 19.1589 21.2422 20.2266 20.6172C21.3203 19.9922 22.4661 19.6797 23.6641 19.6797C24.862 19.6797 26.0078 19.9922 27.1016 20.6172C28.1693 21.2422 29.0026 22.0755 29.6016 23.1172C30.2266 24.1589 30.5391 25.3047 30.5391 26.5547C30.5391 27.8047 30.2266 28.9505 29.6016 29.9922C29.0026 31.0339 28.1693 31.8672 27.1016 32.4922C26.0078 33.1172 24.862 33.4297 23.6641 33.4297C22.4661 33.4297 21.3203 33.1172 20.2266 32.4922C19.1589 31.8672 18.3255 31.0339 17.7266 29.9922C17.1016 28.9505 16.7891 27.8047 16.7891 26.5547ZM23.9766 22.8438C23.7682 22.5833 23.5599 22.5833 23.3516 22.8438L22.4531 24.6406C22.401 24.7448 22.3099 24.8099 22.1797 24.8359L20.2266 25.1094C19.9141 25.2396 19.849 25.4479 20.0312 25.7344L21.4375 27.1016C21.5156 27.2057 21.5547 27.3229 21.5547 27.4531L21.2031 29.3672C21.2031 29.5234 21.2552 29.6536 21.3594 29.7578C21.4635 29.8359 21.5938 29.8359 21.75 29.7578L23.5078 28.8594C23.612 28.8073 23.7161 28.8073 23.8203 28.8594L25.5781 29.7578C25.9167 29.862 26.099 29.7318 26.125 29.3672L25.7734 27.4531C25.7474 27.3229 25.7865 27.2057 25.8906 27.1016L27.2969 25.7344C27.4792 25.4479 27.4141 25.2396 27.1016 25.1094L25.1484 24.8359C25.0182 24.8099 24.9271 24.7448 24.875 24.6406L23.9766 22.8438Z" fill="#F59E0B"/>
</g>
</g>
<defs>
<filter id="filter0_dd_104_296" x="0.664062" y="0" width="46" height="54" filterUnits="userSpaceOnUse" color-interpolation-filters="sRGB">
<feFlood flood-opacity="0" result="BackgroundImageFix"/>
<feColorMatrix in="SourceAlpha" type="matrix" values="0 0 0 0 0 0 0 0 0 0 0 0 0 0 0 0 0 0 127 0" result="hardAlpha"/>
<feMorphology radius="1" operator="erode" in="SourceAlpha" result="effect1_dropShadow_104_296"/>
<feOffset dy="4"/>
<feGaussianBlur stdDeviation="3"/>
<feColorMatrix type="matrix" values="0 0 0 0 0 0 0 0 0 0 0 0 0 0 0 0 0 0 0.1 0"/>
<feBlend mode="normal" in2="BackgroundImageFix" result="effect1_dropShadow_104_296"/>
<feColorMatrix in="SourceAlpha" type="matrix" values="0 0 0 0 0 0 0 0 0 0 0 0 0 0 0 0 0 0 127 0" result="hardAlpha"/>
<feMorphology radius="2" operator="erode" in="SourceAlpha" result="effect2_dropShadow_104_296"/>
<feOffset dy="2"/>
<feGaussianBlur stdDeviation="2"/>
<feColorMatrix type="matrix" values="0 0 0 0 0 0 0 0 0 0 0 0 0 0 0 0 0 0 0.1 0"/>
<feBlend mode="normal" in2="effect1_dropShadow_104_296" result="effect2_dropShadow_104_296"/>
<feBlend mode="normal" in="SourceGraphic" in2="effect2_dropShadow_104_296" result="shape"/>
</filter>
<clipPath id="clip0_104_296">
<rect width="20" height="20" fill="white" transform="translate(13.6641 13)"/>
</clipPath>
</defs>
</svg>
