<svg width="18" height="14" viewBox="0 0 18 14" fill="none" xmlns="http://www.w3.org/2000/svg">
<g clip-path="url(#clip0_68_2178)">
<path d="M3.9375 0.300781C4.75781 0.319011 5.38672 0.683594 5.82422 1.39453C6.22526 2.1237 6.22526 2.85286 5.82422 3.58203C5.38672 4.29297 4.75781 4.65755 3.9375 4.67578C3.11719 4.65755 2.48828 4.29297 2.05078 3.58203C1.64974 2.85286 1.64974 2.1237 2.05078 1.39453C2.48828 0.683594 3.11719 0.319011 3.9375 0.300781ZM14 0.300781C14.8203 0.319011 15.4492 0.683594 15.8867 1.39453C16.2878 2.1237 16.2878 2.85286 15.8867 3.58203C15.4492 4.29297 14.8203 4.65755 14 4.67578C13.1797 4.65755 12.5508 4.29297 12.1133 3.58203C11.7122 2.85286 11.7122 2.1237 12.1133 1.39453C12.5508 0.683594 13.1797 0.319011 14 0.300781ZM0 8.47656C0.0182292 7.63802 0.300781 6.94531 0.847656 6.39844C1.39453 5.85156 2.08724 5.56901 2.92578 5.55078H4.07422C4.51172 5.55078 4.92188 5.64193 5.30469 5.82422C5.26823 6.02474 5.25 6.22526 5.25 6.42578C5.28646 7.5013 5.67839 8.3763 6.42578 9.05078H0.574219C0.227865 9.01432 0.0364583 8.82292 0 8.47656ZM11.0742 9.05078C11.8216 8.3763 12.2135 7.5013 12.25 6.42578C12.25 6.22526 12.2318 6.02474 12.1953 5.82422C12.5781 5.64193 12.9883 5.55078 13.4258 5.55078H14.5742C15.4128 5.56901 16.1055 5.85156 16.6523 6.39844C17.1992 6.94531 17.4818 7.63802 17.5 8.47656C17.4635 8.82292 17.2721 9.01432 16.9258 9.05078H11.0742ZM6.125 6.42578C6.125 5.95182 6.24349 5.51432 6.48047 5.11328C6.71745 4.71224 7.03646 4.39323 7.4375 4.15625C7.85677 3.91927 8.29427 3.80078 8.75 3.80078C9.20573 3.80078 9.64323 3.91927 10.0625 4.15625C10.4635 4.39323 10.7826 4.71224 11.0195 5.11328C11.2565 5.51432 11.375 5.95182 11.375 6.42578C11.375 6.89974 11.2565 7.33724 11.0195 7.73828C10.7826 8.13932 10.4635 8.45833 10.0625 8.69531C9.64323 8.93229 9.20573 9.05078 8.75 9.05078C8.29427 9.05078 7.85677 8.93229 7.4375 8.69531C7.03646 8.45833 6.71745 8.13932 6.48047 7.73828C6.24349 7.33724 6.125 6.89974 6.125 6.42578ZM3.5 13.5625C3.51823 12.5417 3.8737 11.6849 4.56641 10.9922C5.25911 10.2995 6.11589 9.94401 7.13672 9.92578H10.3633C11.3841 9.94401 12.2409 10.2995 12.9336 10.9922C13.6263 11.6849 13.9818 12.5417 14 13.5625C13.9635 14.0182 13.7174 14.2643 13.2617 14.3008H4.23828C3.78255 14.2643 3.53646 14.0182 3.5 13.5625Z" fill="#6B7280"/>
</g>
<defs>
<clipPath id="clip0_68_2178">
<rect width="17.5" height="14" fill="white"/>
</clipPath>
</defs>
</svg>
