<svg width="94" height="36" viewBox="0 0 94 36" fill="none" xmlns="http://www.w3.org/2000/svg">
<g clip-path="url(#clip0_106_1847)">
<path d="M15 33.6445C17.7344 33.6055 20.2344 32.9414 22.5 31.6523C24.7656 30.3242 26.6016 28.4883 28.0078 26.1445C29.3359 23.7617 30 21.2617 30 18.6445C30 16.0273 29.3359 13.5273 28.0078 11.1445C26.6016 8.80078 24.7656 6.96484 22.5 5.63672C20.2344 4.34766 17.7344 3.68359 15 3.64453C12.2656 3.68359 9.76562 4.34766 7.5 5.63672C5.23438 6.96484 3.39844 8.80078 1.99219 11.1445C0.664063 13.5273 0 16.0273 0 18.6445C0 21.2617 0.664063 23.7617 1.99219 26.1445C3.39844 28.4883 5.23438 30.3242 7.5 31.6523C9.76562 32.9414 12.2656 33.6055 15 33.6445ZM21.6211 15.8906L14.1211 23.3906C13.457 23.9375 12.793 23.9375 12.1289 23.3906L8.37891 19.6406C7.83203 18.9766 7.83203 18.3125 8.37891 17.6484C9.04297 17.1016 9.70703 17.1016 10.3711 17.6484L13.125 20.4023L19.6289 13.8984C20.293 13.3516 20.957 13.3516 21.6211 13.8984C22.168 14.5625 22.168 15.2266 21.6211 15.8906Z" fill="#4F46E5"/>
</g>
<path d="M38.82 22.46H55.6V24.62H38.82V22.46ZM45.86 18.38H48.5V22.98H45.86V18.38ZM40.58 9.62H53.76V18.72H40.58V9.62ZM51.14 11.72H43.2V16.6H51.14V11.72ZM59.3384 14.8H72.0584V16.92H59.3384V14.8ZM57.2184 18.74H73.9784V20.88H57.2184V18.74ZM64.1984 19.96H66.8584V26.76H64.1984V19.96ZM59.3384 9.22H71.8584V11.34H62.0584V15.82H59.3384V9.22ZM75.5969 11.04H84.4569V13.14H75.5969V11.04ZM80.0569 13.98C80.8435 13.98 81.5369 14.1667 82.1369 14.54C82.7502 14.9133 83.2302 15.4333 83.5769 16.1C83.9369 16.7533 84.1169 17.5133 84.1169 18.38C84.1169 19.2467 83.9369 20.0133 83.5769 20.68C83.2302 21.3333 82.7502 21.8467 82.1369 22.22C81.5369 22.5933 80.8435 22.78 80.0569 22.78C79.2702 22.78 78.5702 22.5933 77.9569 22.22C77.3435 21.8467 76.8635 21.3333 76.5169 20.68C76.1702 20.0133 75.9969 19.2467 75.9969 18.38C75.9969 17.5133 76.1702 16.7533 76.5169 16.1C76.8635 15.4333 77.3435 14.9133 77.9569 14.54C78.5835 14.1667 79.2835 13.98 80.0569 13.98ZM80.0569 16.18C79.7369 16.18 79.4435 16.2667 79.1769 16.44C78.9102 16.6133 78.7035 16.8667 78.5569 17.2C78.4102 17.52 78.3369 17.9133 78.3369 18.38C78.3369 18.8467 78.4102 19.2467 78.5569 19.58C78.7035 19.9133 78.9102 20.1667 79.1769 20.34C79.4435 20.5 79.7369 20.58 80.0569 20.58C80.3902 20.58 80.6835 20.5 80.9369 20.34C81.1902 20.1667 81.3902 19.9133 81.5369 19.58C81.6835 19.2467 81.7569 18.8467 81.7569 18.38C81.7569 17.9133 81.6835 17.52 81.5369 17.2C81.3902 16.8667 81.1902 16.6133 80.9369 16.44C80.6835 16.2667 80.3902 16.18 80.0569 16.18ZM88.9969 8.24H91.5169V26.76H88.9969V8.24ZM86.7769 15.78H89.8169V17.92H86.7769V15.78ZM85.0969 8.58H87.5769V25.98H85.0969V8.58ZM78.7569 8.74H81.3769V12.36H78.7569V8.74Z" fill="#4F46E5"/>
<defs>
<clipPath id="clip0_106_1847">
<rect width="30" height="30" fill="white" transform="translate(0 3)"/>
</clipPath>
</defs>
</svg>
