<svg width="20" height="16" viewBox="0 0 20 16" fill="none" xmlns="http://www.w3.org/2000/svg">
<path d="M11.8125 3.65625L15.6562 7.5C15.8854 7.72917 16 8.01042 16 8.34375C16 8.67708 15.8854 8.95833 15.6562 9.1875L11.8125 13.0312C11.6042 13.2396 11.3542 13.3438 11.0625 13.3438C10.7708 13.3438 10.5208 13.2396 10.3125 13.0312C10.1042 12.8229 10 12.5729 10 12.2812V10.3438H6C5.70833 10.3438 5.46875 10.25 5.28125 10.0625C5.09375 9.875 5 9.63542 5 9.34375V7.34375C5 7.05208 5.09375 6.8125 5.28125 6.625C5.46875 6.4375 5.70833 6.34375 6 6.34375H10V4.40625C10 4.11458 10.1042 3.86458 10.3125 3.65625C10.5208 3.44792 10.7708 3.34375 11.0625 3.34375C11.3542 3.34375 11.6042 3.44792 11.8125 3.65625ZM5 3.34375H3C2.70833 3.34375 2.46875 3.4375 2.28125 3.625C2.09375 3.8125 2 4.05208 2 4.34375V12.3438C2 12.6354 2.09375 12.875 2.28125 13.0625C2.46875 13.25 2.70833 13.3438 3 13.3438H5C5.29167 13.3438 5.53125 13.4375 5.71875 13.625C5.90625 13.8125 6 14.0521 6 14.3438C6 14.6354 5.90625 14.875 5.71875 15.0625C5.53125 15.25 5.29167 15.3438 5 15.3438H3C2.14583 15.3229 1.4375 15.0312 0.875 14.4688C0.3125 13.9062 0.0208333 13.1979 0 12.3438V4.34375C0.0208333 3.48958 0.3125 2.78125 0.875 2.21875C1.4375 1.65625 2.14583 1.36458 3 1.34375H5C5.29167 1.34375 5.53125 1.4375 5.71875 1.625C5.90625 1.8125 6 2.05208 6 2.34375C6 2.63542 5.90625 2.875 5.71875 3.0625C5.53125 3.25 5.29167 3.34375 5 3.34375Z" fill="#9CA3AF"/>
</svg>
