<svg width="14" height="16" viewBox="0 0 14 16" fill="none" xmlns="http://www.w3.org/2000/svg">
<g clip-path="url(#clip0_106_1799)">
<path d="M7 8.34375C7.72917 8.34375 8.39583 8.16667 9 7.8125C9.60417 7.45833 10.0938 6.96875 10.4688 6.34375C10.8229 5.71875 11 5.05208 11 4.34375C11 3.63542 10.8229 2.96875 10.4688 2.34375C10.0938 1.71875 9.60417 1.22917 9 0.875C8.39583 0.520833 7.72917 0.34375 7 0.34375C6.27083 0.34375 5.60417 0.520833 5 0.875C4.39583 1.22917 3.90625 1.71875 3.53125 2.34375C3.17708 2.96875 3 3.63542 3 4.34375C3 5.05208 3.17708 5.71875 3.53125 6.34375C3.90625 6.96875 4.39583 7.45833 5 7.8125C5.60417 8.16667 6.27083 8.34375 7 8.34375ZM5.5625 9.84375C4 9.88542 2.6875 10.4271 1.625 11.4688C0.583333 12.5312 0.0416667 13.8438 0 15.4062C0 15.6771 0.09375 15.8958 0.28125 16.0625C0.447917 16.25 0.666667 16.3438 0.9375 16.3438H13.0625C13.3333 16.3438 13.5521 16.25 13.7188 16.0625C13.9062 15.8958 14 15.6771 14 15.4062C13.9583 13.8438 13.4167 12.5312 12.375 11.4688C11.3125 10.4271 10 9.88542 8.4375 9.84375H5.5625Z" fill="#9CA3AF"/>
</g>
<defs>
<clipPath id="clip0_106_1799">
<rect width="14" height="16" fill="white"/>
</clipPath>
</defs>
</svg>
