<svg width="14" height="16" viewBox="0 0 14 16" fill="none" xmlns="http://www.w3.org/2000/svg">
<path d="M4.5 4.84375V6.34375H9.5V4.84375C9.47917 4.13542 9.23958 3.54167 8.78125 3.0625C8.30208 2.60417 7.70833 2.36458 7 2.34375C6.29167 2.36458 5.69792 2.60417 5.21875 3.0625C4.76042 3.54167 4.52083 4.13542 4.5 4.84375ZM2.5 6.34375V4.84375C2.54167 3.57292 2.97917 2.51042 3.8125 1.65625C4.66667 0.822917 5.72917 0.385417 7 0.34375C8.27083 0.385417 9.33333 0.822917 10.1875 1.65625C11.0208 2.51042 11.4583 3.57292 11.5 4.84375V6.34375H12C12.5625 6.36458 13.0312 6.5625 13.4062 6.9375C13.7812 7.3125 13.9792 7.78125 14 8.34375V14.3438C13.9792 14.9062 13.7812 15.375 13.4062 15.75C13.0312 16.125 12.5625 16.3229 12 16.3438H2C1.4375 16.3229 0.96875 16.125 0.59375 15.75C0.21875 15.375 0.0208333 14.9062 0 14.3438V8.34375C0.0208333 7.78125 0.21875 7.3125 0.59375 6.9375C0.96875 6.5625 1.4375 6.36458 2 6.34375H2.5Z" fill="#9CA3AF"/>
</svg>
