<svg width="33" height="32" viewBox="0 0 33 32" fill="none" xmlns="http://www.w3.org/2000/svg">
<path d="M0.828125 16C0.828125 7.16344 7.99157 0 16.8281 0C25.6647 0 32.8281 7.16344 32.8281 16C32.8281 24.8366 25.6647 32 16.8281 32C7.99157 32 0.828125 24.8366 0.828125 16Z" fill="#F3F4F6"/>
<g clip-path="url(#clip0_106_2090)">
<path d="M16.8281 16.3438C17.5573 16.3438 18.224 16.1667 18.8281 15.8125C19.4323 15.4583 19.9219 14.9688 20.2969 14.3438C20.651 13.7188 20.8281 13.0521 20.8281 12.3438C20.8281 11.6354 20.651 10.9688 20.2969 10.3438C19.9219 9.71875 19.4323 9.22917 18.8281 8.875C18.224 8.52083 17.5573 8.34375 16.8281 8.34375C16.099 8.34375 15.4323 8.52083 14.8281 8.875C14.224 9.22917 13.7344 9.71875 13.3594 10.3438C13.0052 10.9688 12.8281 11.6354 12.8281 12.3438C12.8281 13.0521 13.0052 13.7188 13.3594 14.3438C13.7344 14.9688 14.224 15.4583 14.8281 15.8125C15.4323 16.1667 16.099 16.3438 16.8281 16.3438ZM15.3906 17.8438C13.8281 17.8854 12.5156 18.4271 11.4531 19.4688C10.4115 20.5312 9.86979 21.8438 9.82812 23.4062C9.82812 23.6771 9.92188 23.8958 10.1094 24.0625C10.276 24.25 10.4948 24.3438 10.7656 24.3438H22.8906C23.1615 24.3438 23.3802 24.25 23.5469 24.0625C23.7344 23.8958 23.8281 23.6771 23.8281 23.4062C23.7865 21.8438 23.2448 20.5312 22.2031 19.4688C21.1406 18.4271 19.8281 17.8854 18.2656 17.8438H15.3906Z" fill="#9CA3AF"/>
</g>
<defs>
<clipPath id="clip0_106_2090">
<rect width="14" height="16" fill="white" transform="translate(9.82812 8)"/>
</clipPath>
</defs>
</svg>
