<svg width="46" height="54" viewBox="0 0 46 54" fill="none" xmlns="http://www.w3.org/2000/svg">
<g filter="url(#filter0_dd_104_330)">
<path d="M4.99219 19C4.99219 9.05888 13.0511 1 22.9922 1C32.9333 1 40.9922 9.05888 40.9922 19V27C40.9922 36.9411 32.9333 45 22.9922 45C13.0511 45 4.99219 36.9411 4.99219 27V19Z" fill="white"/>
<g clip-path="url(#clip0_104_330)">
<path d="M13.1484 14.9141C13.0443 14.7578 12.9922 14.5885 12.9922 14.4062C13.0443 13.8073 13.3698 13.4818 13.9688 13.4297H18.2266C18.6953 13.4557 19.0469 13.6641 19.2812 14.0547L21.9766 18.5078C20.0495 18.7682 18.4349 19.5755 17.1328 20.9297L13.1484 14.9141ZM32.8359 14.9141L28.8516 20.9297C27.5495 19.5755 25.9349 18.7682 24.0078 18.5078L26.7031 14.0547C26.9375 13.6641 27.2891 13.4557 27.7578 13.4297H32.0156C32.6146 13.4818 32.9401 13.8073 32.9922 14.4062C32.9922 14.5885 32.9401 14.7578 32.8359 14.9141ZM16.1172 26.5547C16.1172 25.3047 16.4297 24.1589 17.0547 23.1172C17.6536 22.0755 18.487 21.2422 19.5547 20.6172C20.6484 19.9922 21.7943 19.6797 22.9922 19.6797C24.1901 19.6797 25.3359 19.9922 26.4297 20.6172C27.4974 21.2422 28.3307 22.0755 28.9297 23.1172C29.5547 24.1589 29.8672 25.3047 29.8672 26.5547C29.8672 27.8047 29.5547 28.9505 28.9297 29.9922C28.3307 31.0339 27.4974 31.8672 26.4297 32.4922C25.3359 33.1172 24.1901 33.4297 22.9922 33.4297C21.7943 33.4297 20.6484 33.1172 19.5547 32.4922C18.487 31.8672 17.6536 31.0339 17.0547 29.9922C16.4297 28.9505 16.1172 27.8047 16.1172 26.5547ZM23.3047 22.8438C23.0964 22.5833 22.888 22.5833 22.6797 22.8438L21.7812 24.6406C21.7292 24.7448 21.638 24.8099 21.5078 24.8359L19.5547 25.1094C19.2422 25.2396 19.1771 25.4479 19.3594 25.7344L20.7656 27.1016C20.8438 27.2057 20.8828 27.3229 20.8828 27.4531L20.5312 29.3672C20.5312 29.5234 20.5833 29.6536 20.6875 29.7578C20.7917 29.8359 20.9219 29.8359 21.0781 29.7578L22.8359 28.8594C22.9401 28.8073 23.0443 28.8073 23.1484 28.8594L24.9062 29.7578C25.2448 29.862 25.4271 29.7318 25.4531 29.3672L25.1016 27.4531C25.0755 27.3229 25.1146 27.2057 25.2188 27.1016L26.625 25.7344C26.8073 25.4479 26.7422 25.2396 26.4297 25.1094L24.4766 24.8359C24.3464 24.8099 24.2552 24.7448 24.2031 24.6406L23.3047 22.8438Z" fill="#9CA3AF"/>
</g>
</g>
<defs>
<filter id="filter0_dd_104_330" x="-0.0078125" y="0" width="46" height="54" filterUnits="userSpaceOnUse" color-interpolation-filters="sRGB">
<feFlood flood-opacity="0" result="BackgroundImageFix"/>
<feColorMatrix in="SourceAlpha" type="matrix" values="0 0 0 0 0 0 0 0 0 0 0 0 0 0 0 0 0 0 127 0" result="hardAlpha"/>
<feMorphology radius="1" operator="erode" in="SourceAlpha" result="effect1_dropShadow_104_330"/>
<feOffset dy="4"/>
<feGaussianBlur stdDeviation="3"/>
<feColorMatrix type="matrix" values="0 0 0 0 0 0 0 0 0 0 0 0 0 0 0 0 0 0 0.1 0"/>
<feBlend mode="normal" in2="BackgroundImageFix" result="effect1_dropShadow_104_330"/>
<feColorMatrix in="SourceAlpha" type="matrix" values="0 0 0 0 0 0 0 0 0 0 0 0 0 0 0 0 0 0 127 0" result="hardAlpha"/>
<feMorphology radius="2" operator="erode" in="SourceAlpha" result="effect2_dropShadow_104_330"/>
<feOffset dy="2"/>
<feGaussianBlur stdDeviation="2"/>
<feColorMatrix type="matrix" values="0 0 0 0 0 0 0 0 0 0 0 0 0 0 0 0 0 0 0.1 0"/>
<feBlend mode="normal" in2="effect1_dropShadow_104_330" result="effect2_dropShadow_104_330"/>
<feBlend mode="normal" in="SourceGraphic" in2="effect2_dropShadow_104_330" result="shape"/>
</filter>
<clipPath id="clip0_104_330">
<rect width="20" height="20" fill="white" transform="translate(12.9922 13)"/>
</clipPath>
</defs>
</svg>
