<svg width="18" height="20" viewBox="0 0 18 20" fill="none" xmlns="http://www.w3.org/2000/svg">
<path d="M9.49609 14.4297C9.67839 14.5938 9.88802 14.6758 10.125 14.6758C10.362 14.6758 10.5716 14.5938 10.7539 14.4297L16.0039 9.17969C16.168 8.9974 16.25 8.78776 16.25 8.55078C16.25 8.3138 16.168 8.10417 16.0039 7.92188C15.8216 7.75781 15.612 7.67578 15.375 7.67578C15.138 7.67578 14.9284 7.75781 14.7461 7.92188L10.125 12.5703L5.50391 7.92188C5.32161 7.75781 5.11198 7.67578 4.875 7.67578C4.63802 7.67578 4.42839 7.75781 4.24609 7.92188C4.08203 8.10417 4 8.3138 4 8.55078C4 8.78776 4.08203 8.9974 4.24609 9.17969L9.49609 14.4297Z" fill="#9CA3AF"/>
</svg>
