<svg width="18" height="20" viewBox="0 0 18 20" fill="none" xmlns="http://www.w3.org/2000/svg">
<path d="M12.5039 5.57031C12.3216 5.40625 12.112 5.32422 11.875 5.32422C11.638 5.32422 11.4284 5.40625 11.2461 5.57031L5.99609 10.8203C5.83203 11.0026 5.75 11.2122 5.75 11.4492C5.75 11.6862 5.83203 11.8958 5.99609 12.0781C6.17839 12.2422 6.38802 12.3242 6.625 12.3242C6.86198 12.3242 7.07161 12.2422 7.25391 12.0781L11.875 7.42969L16.4961 12.0781C16.6784 12.2422 16.888 12.3242 17.125 12.3242C17.362 12.3242 17.5716 12.2422 17.7539 12.0781C17.918 11.8958 18 11.6862 18 11.4492C18 11.2122 17.918 11.0026 17.7539 10.8203L12.5039 5.57031Z" fill="#9CA3AF"/>
</svg>
